<?xml version="1.0" encoding="utf-8"?>
<svg viewBox="0 0 100 100" fill="none" xmlns="http://www.w3.org/2000/svg">
<path d="M 3 50 l 47 47 l 47 -47 l -47 -47 l -47 47" stroke="#6C5000" stroke-width="0.5" />
<path d="M 50 3 l 0 94" stroke="#6C5000" stroke-width="0.5" />
<path d="M 50 3 l 10 84" stroke="#6C5000" stroke-width="0.3" />
<path d="M 50 3 l 20 74" stroke="#6C5000" stroke-width="0.5" />
<path d="M 50 3 l 30 64" stroke="#6C5000" stroke-width="0.3" />
<path d="M 50 3 l 40 54" stroke="#6C5000" stroke-width="0.3" />
<path d="M 50 3 l -10 84" stroke="#6C5000" stroke-width="0.3" />
<path d="M 50 3 l -20 74" stroke="#6C5000" stroke-width="0.5" />
<path d="M 50 3 l -30 64" stroke="#6C5000" stroke-width="0.3" />
<path d="M 50 3 l -40 54" stroke="#6C5000" stroke-width="0.3" />
<path d="M 40 13 l 10 20 l 10 -20" stroke="#6C5000" stroke-width="0.3" />
<path d="M 43 10 l 7 12 l 7 -12" stroke="#6C5000" stroke-width="0.3" />


<path d="M -47 0 l 47 47 l 47 -47 l -47 -47 l -47 47" stroke="#6C5000" stroke-width="0.5" />
<path d="M 0 -47 l 0 94" stroke="#6C5000" stroke-width="0.5" />
<path d="M 0 -47 l 10 84" stroke="#6C5000" stroke-width="0.3" />
<path d="M 0 -47 l 20 74" stroke="#6C5000" stroke-width="0.5" />
<path d="M 0 -47 l 30 64" stroke="#6C5000" stroke-width="0.3" />
<path d="M 0 -47 l 40 54" stroke="#6C5000" stroke-width="0.3" />


<path d="M 53 0 l 47 47 l 47 -47 l -47 -47 l -47 47" stroke="#6C5000" stroke-width="0.5" />
<path d="M 100 -47 l 0 94" stroke="#6C5000" stroke-width="0.5" />
<path d="M 100 -47 l -10 84" stroke="#6C5000" stroke-width="0.3" />
<path d="M 100 -47 l -20 74" stroke="#6C5000" stroke-width="0.5" />
<path d="M 100 -47 l -30 64" stroke="#6C5000" stroke-width="0.3" />
<path d="M 100 -47 l -40 54" stroke="#6C5000" stroke-width="0.3" />


<path d="M 53 100 l 47 47 l 47 -47 l -47 -47 l -47 47" stroke="#6C5000" stroke-width="0.5" />
<path d="M 100 53 l 0 94" stroke="#6C5000" stroke-width="0.5" />
<path d="M 100 53 l -10 84" stroke="#6C5000" stroke-width="0.3" />
<path d="M 100 53 l -20 74" stroke="#6C5000" stroke-width="0.5" />
<path d="M 100 53 l -30 64" stroke="#6C5000" stroke-width="0.3" />
<path d="M 100 53 l -40 54" stroke="#6C5000" stroke-width="0.3" />
<path d="M 90 63 l 10 20 l 10 -20" stroke="#6C5000" stroke-width="0.3" />
<path d="M 93 60 l 7 12 l 7 -12" stroke="#6C5000" stroke-width="0.3" />


<path d="M -47 100 l 47 47 l 47 -47 l -47 -47 l -47 47" stroke="#6C5000" stroke-width="0.5" />
<path d="M 0 53 l 0 94" stroke="#6C5000" stroke-width="0.5" />
<path d="M 0 53 l 10 84" stroke="#6C5000" stroke-width="0.3" />
<path d="M 0 53 l 20 74" stroke="#6C5000" stroke-width="0.5" />
<path d="M 0 53 l 30 64" stroke="#6C5000" stroke-width="0.3" />
<path d="M 0 53 l 40 54" stroke="#6C5000" stroke-width="0.3" />
<path d="M -10 63 l 10 20 l 10 -20" stroke="#6C5000" stroke-width="0.3" />
<path d="M -7 60 l 7 12 l 7 -12" stroke="#6C5000" stroke-width="0.3" />

</svg>