<?xml version="1.0" encoding="UTF-8" standalone="no"?>
<!-- Created with Inkscape (http://www.inkscape.org/) -->

<svg
   width="200mm"
   height="200mm"
   viewBox="0 0 200 200"
   version="1.1"
   id="svg1"
   xmlns="http://www.w3.org/2000/svg"
   xmlns:svg="http://www.w3.org/2000/svg">
  <defs
     id="defs1" />
  <g
     id="layer1"
     transform="translate(-3.6295395,-56.127411)">
    <rect
       style="fill:none;stroke:none;stroke-width:0.264999;stroke-dasharray:none;stroke-opacity:1"
       id="rect188"
       width="200"
       height="200"
       x="3.6295397"
       y="56.127407" />
    <path
       style="fill:none;stroke:#000000;stroke-width:0.264999;stroke-dasharray:none;stroke-opacity:1"
       d="m 94.994046,128.24932 c 2.54498,-9.83001 8.977694,-16.1312 8.977694,-16.1312 0,0 -2.71168,3.40397 -4.990304,7.48056 -1.6801,3.00579 -3.06669,6.46436 -3.25571,8.74607"
       id="path177" />
    <path
       style="fill:none;stroke:#000000;stroke-width:0.264999;stroke-dasharray:none;stroke-opacity:1"
       d="m 94.996346,128.1906 c 0,0 0.2362,1.01226 0.6636,0.11248"
       id="path178" />
    <path
       style="fill:none;stroke:#000000;stroke-width:0.264999;stroke-dasharray:none;stroke-opacity:1"
       d="m 104.06056,113.55202 c 0,0 3.72205,-0.509 3.81748,-5.02635 0,0 -0.31812,-2.16324 -5.08997,2.8313"
       id="path179" />
    <path
       style="fill:none;stroke:#000000;stroke-width:0.264999;stroke-dasharray:none;stroke-opacity:1"
       d="m 106.03293,113.20208 c 0,0 -0.38175,2.00418 -3.46755,2.70405"
       id="path180" />
    <path
       style="fill:none;stroke:#000000;stroke-width:0.264999;stroke-dasharray:none;stroke-opacity:1"
       d="m 104.79225,115.58801 c 0,0 -0.15906,2.03599 -3.69023,2.95855"
       id="path181" />
    <path
       style="fill:none;stroke:#000000;stroke-width:0.264999;stroke-dasharray:none;stroke-opacity:1"
       d="m 102.8517,117.97394 c 0,0 2.29048,-0.28632 -3.053994,2.99036"
       id="path182" />
    <path
       style="fill:none;stroke:#000000;stroke-width:0.264999;stroke-dasharray:none;stroke-opacity:1"
       d="m 100.94295,120.42348 c 0,0 4.07198,-0.7953 -2.513174,2.44955"
       id="path183" />
    <path
       style="fill:none;stroke:#000000;stroke-width:0.264999;stroke-dasharray:none;stroke-opacity:1"
       d="m 99.066026,122.7776 c 0,0 4.485544,-0.44537 -2.03599,2.09961"
       id="path184" />
    <path
       style="fill:none;stroke:#000000;stroke-width:0.264999;stroke-dasharray:none;stroke-opacity:1"
       d="m 103.07438,110.56166 c 0,0 -0.95437,-0.54081 -2.38593,2.89492 0,0 1e-5,0 -0.44537,1.33612"
       id="path185" />
    <path
       style="fill:none;stroke:#000000;stroke-width:0.264999;stroke-dasharray:none;stroke-opacity:1"
       d="m 100.59302,113.71108 c 0,0 -0.22269,-2.19505 -2.163244,2.29049 0,0 -0.38175,1.2725 -0.38175,2.64043"
       id="path186" />
    <path
       style="fill:none;stroke:#000000;stroke-width:0.264999;stroke-dasharray:none;stroke-opacity:1"
       d="m 98.207086,116.89232 c 0,0 -0.85893,-2.19506 -1.49518,4.26285"
       id="path187" />
    <path
       style="fill:none;stroke:#000000;stroke-width:0.264999;stroke-dasharray:none;stroke-opacity:1"
       d="m 96.807346,120.07355 c 0,0 -0.79531,-2.13143 -0.85893,3.21305"
       id="path188" />
    <path
       style="fill:none;stroke:#000000;stroke-width:0.365001;stroke-dasharray:none;stroke-opacity:1"
       d="m 171.88926,166.84316 c 0,0 5.5337,3.05928 14.8915,1.66461"
       id="path155" />
    <path
       style="fill:none;stroke:#000000;stroke-width:0.365001;stroke-dasharray:none;stroke-opacity:1"
       d="m 186.64579,168.46278 c 1.94646,-0.35606 -1.54674,-2.03871 -4.89878,-3.12392 -3.00109,-0.97159 -5.8087,-1.37502 -5.8087,-1.37502 0,0 -10.25759,-1.25971 -8.27806,0.22495 1.97954,1.48465 4.36398,2.78934 4.36398,2.78934"
       id="path156" />
    <path
       style="fill:none;stroke:#000000;stroke-width:0.365001;stroke-dasharray:none;stroke-opacity:1"
       d="m 169.63978,165.26853 c 0,0 -0.62985,-2.24947 11.06741,1.12474"
       id="path157" />
    <path
       style="fill:none;stroke:#000000;stroke-width:0.365001;stroke-dasharray:none;stroke-opacity:1"
       d="m 184.66626,168.62024 c 0,0 -0.13497,-0.8323 -4.04905,-2.22697"
       id="path158" />
    <path
       style="fill:none;stroke:#000000;stroke-width:0.365001;stroke-dasharray:none;stroke-opacity:1"
       d="m 186.98322,168.4178 c 0,0 -2.72186,11.83221 -9.06537,12.14714"
       id="path159" />
    <path
       style="fill:none;stroke:#000000;stroke-width:0.365001;stroke-dasharray:none;stroke-opacity:1"
       d="m 167.57027,164.23377 c 0,0 -3.86909,16.78107 10.03265,16.37616"
       id="path160" />
    <path
       style="fill:none;stroke:#000000;stroke-width:0.365001;stroke-dasharray:none;stroke-opacity:1"
       d="m 186.28588,170.9372 c 0,0 6.11856,-2.83433 4.04905,4.85886"
       id="path161" />
    <path
       style="fill:none;stroke:#000000;stroke-width:0.365001;stroke-dasharray:none;stroke-opacity:1"
       d="m 183.40656,177.37069 c 0,0 5.0838,2.78935 6.97336,-1.66461"
       id="path162" />
    <path
       style="fill:none;stroke:#000000;stroke-width:0.365001;stroke-dasharray:none;stroke-opacity:1"
       d="m 185.70102,172.96172 c 0,0 4.09404,-2.33945 3.64414,1.07975"
       id="path163" />
    <path
       style="fill:none;stroke:#000000;stroke-width:0.365001;stroke-dasharray:none;stroke-opacity:1"
       d="m 184.12639,176.20096 c 0,0 5.12879,1.21472 5.26376,-2.15949"
       id="path164" />
    <path
       style="fill:none;stroke:#000000;stroke-width:0.365001;stroke-dasharray:none;stroke-opacity:1"
       d="m 182.10186,178.6304 c 0,0 2.60939,1.48465 2.33945,-0.09 l -0.62985,-0.89977"
       id="path165" />
    <path
       style="fill:none;stroke:#000000;stroke-width:0.365001;stroke-dasharray:none;stroke-opacity:1"
       d="m 170.80951,178.94532 c 0,0 -5.35374,0.49489 1.03476,2.9693"
       id="path166" />
    <path
       style="fill:none;stroke:#000000;stroke-width:0.365001;stroke-dasharray:none;stroke-opacity:1"
       d="m 178.36774,180.83488 c 0,0 4.40896,2.02452 -2.92432,1.84456 0,0 -0.62985,0.09 -3.68913,-0.8098"
       id="path167" />
    <path
       style="fill:none;stroke:#000000;stroke-width:0.365001;stroke-dasharray:none;stroke-opacity:1"
       d="m 169.63978,171.38709 c 0,0 0,0.8548 0.80982,1.25971"
       id="path168" />
    <path
       style="fill:none;stroke:#000000;stroke-width:0.365001;stroke-dasharray:none;stroke-opacity:1"
       d="m 172.15919,174.67132 c 0,0 0.40491,0.94478 1.16973,0.94478"
       id="path169" />
    <path
       style="fill:none;stroke:#000000;stroke-width:0.365001;stroke-dasharray:none;stroke-opacity:1"
       d="m 177.10803,176.24595 c 0,0 0.53988,0.09 0.89979,-0.22494"
       id="path170" />
    <path
       style="fill:none;stroke:#000000;stroke-width:0.365001;stroke-dasharray:none;stroke-opacity:1"
       d="m 179.53746,175.07623 c 0,0 0.71983,-0.045 1.12474,-0.89979"
       id="path171" />
    <path
       style="fill:none;stroke:#000000;stroke-width:0.365001;stroke-dasharray:none;stroke-opacity:1"
       d="m 180.70719,172.73678 c 0,0 1.34968,0.09 2.20448,-1.39467 0,0 -0.22494,1.12473 0.58487,1.79957 0,0 -1.7096,0.53988 -1.57463,1.39468 0,0 0.22494,-1.25971 -0.80981,-1.79958"
       id="path172" />
    <path
       style="fill:none;stroke:#000000;stroke-width:0.365001;stroke-dasharray:none;stroke-opacity:1"
       d="m 168.56004,169.40757 c 0.94477,-0.26994 1.12473,-1.39468 1.12473,-1.39468 0,0 -0.17995,1.3047 0.58487,1.52964 0,0 -1.75459,0.67485 -0.98977,1.34969 0,0 0.17996,-0.89978 -0.71983,-1.48465 z"
       id="path173" />
    <path
       style="fill:none;stroke:#000000;stroke-width:0.265;stroke-dasharray:none;stroke-opacity:1"
       id="path174"
       d="m 171.01467,174.43796 a 0.56236804,0.62985218 0 0 1 -0.12142,-0.81713 0.56236804,0.62985218 0 0 1 0.70647,-0.24518 0.56236804,0.62985218 0 0 1 0.31239,0.75085 0.56236804,0.62985218 0 0 1 -0.62203,0.44814" />
    <path
       style="fill:none;stroke:#000000;stroke-width:0.265;stroke-dasharray:none;stroke-opacity:1"
       id="path175"
       d="m 179.33168,175.28512 a 0.60735744,0.64008445 0 0 1 -0.0258,0.78679 0.60735744,0.64008445 0 0 1 -0.73035,0.16533 0.60735744,0.64008445 0 0 1 -0.33009,-0.70623 0.60735744,0.64008445 0 0 1 0.5695,-0.50946" />
    <path
       style="fill:none;stroke:#000000;stroke-width:0.264999;stroke-dasharray:none;stroke-opacity:1"
       d="m 174.90355,177.41568 c 0.35992,-1.12476 1.39468,-1.03476 1.39468,-1.03476 -0.94479,-0.62985 -0.89979,-1.84457 -0.89979,-1.84457 -0.31493,1.52967 -1.34969,1.43967 -1.34969,1.43967 0,0 1.16972,0.44989 0.8548,1.43966 z"
       id="path176" />
    <path
       style="fill:none;stroke:#000000;stroke-width:0.365001;stroke-dasharray:none;stroke-opacity:1"
       d="m 114.99415,68.545841 c 0,0 4.18402,-2.114505 5.84863,-0.989769 l -1.7096,3.779115 c 0,0 -3.37421,-2.879325 -4.13903,-2.789346 z"
       id="path127" />
    <path
       style="fill:none;stroke:#000000;stroke-width:0.365001;stroke-dasharray:none;stroke-opacity:1"
       d="m 120.7528,68.68081 c 0,0 2.65437,0.224946 7.87315,8.86292"
       id="path128" />
    <path
       style="fill:none;stroke:#000000;stroke-width:0.365001;stroke-dasharray:none;stroke-opacity:1"
       d="m 119.49309,71.290197 c 0,0 4.31899,4.408964 4.49895,8.90791 0.17995,4.498943 8.27805,10.752476 8.27805,10.752476"
       id="path129" />
    <path
       style="fill:none;stroke:#000000;stroke-width:0.365001;stroke-dasharray:none;stroke-opacity:1"
       d="m 131.59525,90.590667 c 0,0 -2.15949,1.304692 0.09,2.159492"
       id="path130" />
    <path
       style="fill:none;stroke:#000000;stroke-width:0.365001;stroke-dasharray:none;stroke-opacity:1"
       d="m 137.98375,92.66018 c 0,0 1.57463,3.239241 -2.87932,1.439664 l -3.55416,-1.394672"
       id="path131" />
    <path
       style="fill:none;stroke:#000000;stroke-width:0.365001;stroke-dasharray:none;stroke-opacity:1"
       d="m 130.60548,92.300265 c 0,0 -1.79957,0.76482 -4.229,0.719833 -2.42943,-0.04499 2.02452,3.059282 2.02452,3.059282"
       id="path132" />
    <path
       style="fill:none;stroke:#000000;stroke-width:0.365001;stroke-dasharray:none;stroke-opacity:1"
       d="m 137.89378,94.909654 c 0,0 1.52964,2.249472 2.65437,3.059285 1.12474,0.80981 -3.05928,1.07974 -3.05928,1.07974 0,0 -5.08381,-0.22495 -9.26782,-3.059279"
       id="path133" />
    <path
       style="fill:none;stroke:#000000;stroke-width:0.365001;stroke-dasharray:none;stroke-opacity:1"
       d="m 128.80591,94.189821 c 0,0 1.84456,2.294464 6.07357,2.789346"
       id="path134" />
    <path
       style="fill:none;stroke:#000000;stroke-width:0.365001;stroke-dasharray:none;stroke-opacity:1"
       d="m 124.127,74.529437 c 0,0 2.33945,2.114503 3.19425,3.689133 0.8548,1.574631 2.78935,2.114503 2.78935,2.114503"
       id="path135" />
    <path
       style="fill:none;stroke:#000000;stroke-width:0.365001;stroke-dasharray:none;stroke-opacity:1"
       d="m 131.55026,80.333073 c -0.31492,-0.359915 -4.72389,-3.374207 -1.07974,-3.959069 3.64414,-0.584864 4.00406,-1.079748 4.00406,-1.079748 0,0 2.24947,-0.674841 3.8241,-0.404905"
       id="path136" />
    <path
       style="fill:none;stroke:#000000;stroke-width:0.365001;stroke-dasharray:none;stroke-opacity:1"
       d="m 131.32532,76.418992 c 0,0 1.84456,3.734125 6.07357,5.173786 4.22901,1.439662 8.00812,0.80981 8.00812,0.80981"
       id="path137" />
    <path
       style="fill:none;stroke:#000000;stroke-width:0.365001;stroke-dasharray:none;stroke-opacity:1"
       d="m 133.43982,75.969099 c 0,0 1.07975,2.474418 3.50918,3.419197"
       id="path138" />
    <path
       style="fill:none;stroke:#000000;stroke-width:0.365001;stroke-dasharray:none;stroke-opacity:1"
       d="m 137.89378,79.793202 c 0,0 1.6646,1.079746 4.09403,0.899787"
       id="path139" />
    <path
       style="fill:none;stroke:#000000;stroke-width:0.365001;stroke-dasharray:none;stroke-opacity:1"
       d="m 143.42748,80.962927 c 0,0 2.06951,-0.08998 0.94477,-2.339451 0,0 -0.89978,-1.979535 -2.1145,-2.339451"
       id="path140" />
    <path
       style="fill:none;stroke:#000000;stroke-width:0.365001;stroke-dasharray:none;stroke-opacity:1"
       d="m 138.74857,75.114299 c 0,0 0.26994,-1.439661 1.25971,-1.079746"
       id="path141" />
    <path
       style="fill:none;stroke:#000000;stroke-width:0.365001;stroke-dasharray:none;stroke-opacity:1"
       d="m 140.36819,73.899584 c 0,0 -2.69936,-2.699366 1.25971,-3.104271"
       id="path142" />
    <path
       style="fill:none;stroke:#000000;stroke-width:0.365001;stroke-dasharray:none;stroke-opacity:1"
       d="m 142.21276,74.439458 c 0,0 3.10427,-0.269938 1.75459,-2.47442"
       id="path143" />
    <path
       style="fill:none;stroke:#000000;stroke-width:0.365001;stroke-dasharray:none;stroke-opacity:1"
       d="m 141.76287,70.660343 c 0,0 2.33945,-1.934546 2.1145,1.124736"
       id="path144" />
    <path
       style="fill:none;stroke:#000000;stroke-width:0.365001;stroke-dasharray:none;stroke-opacity:1"
       d="m 142.12278,74.844364 c 0,0 1.52964,2.294461 -1.93454,0.989766"
       id="path145" />
    <path
       style="fill:none;stroke:#000000;stroke-width:0.365001;stroke-dasharray:none;stroke-opacity:1"
       d="m 144.86714,80.692989 c 0,0 1.93455,-0.269936 0.76482,1.709599"
       id="path146" />
    <path
       style="fill:none;stroke:#000000;stroke-width:0.365001;stroke-dasharray:none;stroke-opacity:1"
       d="m 142.8876,84.921996 c 0,0 3.73413,1.214715 5.26377,-0.404903"
       id="path147" />
    <path
       style="fill:none;stroke:#000000;stroke-width:0.365001;stroke-dasharray:none;stroke-opacity:1"
       d="m 145.49699,82.672524 c 0,0 1.79958,0.404905 1.97954,1.439664 0.17996,0.764821 0.17996,0.764821 0.17996,0.764821"
       id="path148" />
    <path
       style="fill:none;stroke:#000000;stroke-width:0.365001;stroke-dasharray:none;stroke-opacity:1"
       d="m 148.4213,84.067199 c 0,-0.269939 0.98977,-4.498945 4.99383,-3.914083 0,0 5.30876,-0.04499 3.50918,8.233069 0,0 -0.62985,4.184018 -9.08787,2.564399"
       id="path149" />
    <path
       style="fill:none;stroke:#000000;stroke-width:0.365001;stroke-dasharray:none;stroke-opacity:1"
       d="m 147.25158,91.670413 c 0,0 -0.62985,-1.079746 0.67484,-0.71983"
       id="path150" />
    <path
       style="fill:none;stroke:#000000;stroke-width:0.365001;stroke-dasharray:none;stroke-opacity:1"
       d="m 145.81192,90.500688 c 0,0 -1.61963,3.869092 2.29446,2.114504"
       id="path151" />
    <path
       style="fill:none;stroke:#000000;stroke-width:0.365001;stroke-dasharray:none;stroke-opacity:1"
       d="m 147.88143,91.265508 c 0,0 1.79958,0.449895 0.13497,1.439662"
       id="path152" />
    <path
       style="fill:none;stroke:#000000;stroke-width:0.365001;stroke-dasharray:none;stroke-opacity:1"
       d="m 153.37014,88.431175 c 1.57464,0.359915 1.75459,-2.114504 1.75459,-2.114504 -0.71983,-7.063342 -4.63391,-2.699367 -4.63391,-2.699367 3.05928,3.869092 -1.66461,2.159492 -1.66461,2.159492 0,0 -2.60939,2.969305 -1.75459,2.699368 0,0 2.02453,1.484652 4.76888,0.539874"
       id="path153" />
    <path
       style="fill:none;stroke:#000000;stroke-width:0.365001;stroke-dasharray:none;stroke-opacity:1"
       d="m 138.29868,92.570203 c 0,0 2.92431,1.349682 8.00812,-3.149261"
       id="path154" />
    <path
       style="fill:none;stroke:#000000;stroke-width:0.365001;stroke-dasharray:none;stroke-opacity:1"
       d="m 34.328082,147.45733 -3.374207,8.9529"
       id="path102" />
    <path
       style="fill:none;stroke:#000000;stroke-width:0.365001;stroke-dasharray:none;stroke-opacity:1"
       d="m 31.808675,147.90722 -2.429431,8.00812"
       id="path103" />
    <path
       style="fill:none;stroke:#000000;stroke-width:0.365001;stroke-dasharray:none;stroke-opacity:1"
       d="m 28.884359,158.34477 -3.419197,7.73818"
       id="path104" />
    <path
       style="fill:none;stroke:#000000;stroke-width:0.380367;stroke-dasharray:none;stroke-opacity:1"
       d="m 27.451235,167.86481 2.956228,-8.60253"
       id="path105" />
    <path
       style="fill:none;stroke:#000000;stroke-width:0.365001;stroke-dasharray:none;stroke-opacity:1"
       d="m 49.084619,152.81107 -2.654376,8.86292"
       id="path106" />
    <path
       style="fill:none;stroke:#000000;stroke-width:0.365001;stroke-dasharray:none;stroke-opacity:1"
       d="m 50.974176,154.25073 -3.149262,7.82816"
       id="path107" />
    <path
       style="fill:none;stroke:#000000;stroke-width:0.365001;stroke-dasharray:none;stroke-opacity:1"
       d="m 45.710412,163.96845 -3.734125,8.72795"
       id="path108" />
    <path
       style="fill:none;stroke:#000000;stroke-width:0.365001;stroke-dasharray:none;stroke-opacity:1"
       d="m 46.835148,164.5983 c 0,0 0.269936,0.94478 -2.699367,7.96313"
       id="path109" />
    <path
       style="fill:none;stroke:#000000;stroke-width:0.365001;stroke-dasharray:none;stroke-opacity:1"
       d="m 44.675654,172.78638 c 0,0 -9.897677,0.62988 -17.500893,-4.99383"
       id="path110" />
    <path
       style="fill:none;stroke:#000000;stroke-width:0.365001;stroke-dasharray:none;stroke-opacity:1"
       d="m 25.510152,165.99298 c 0,0 -3.959071,4.31898 15.701314,8.59298"
       id="path111" />
    <path
       style="fill:none;stroke:#000000;stroke-width:0.365001;stroke-dasharray:none;stroke-opacity:1"
       d="m 24.745332,167.6126 c 0,0 -3.329221,4.31898 12.147147,8.45801 0,0 5.758651,1.3047 7.378271,-0.44989 l 0.449894,-2.78935"
       id="path112" />
    <path
       style="fill:none;stroke:#000000;stroke-width:0.365001;stroke-dasharray:none;stroke-opacity:1"
       d="m 33.158357,152.22621 c 0,0 -0.719831,1.48465 3.374207,5.75864"
       id="path113" />
    <path
       style="fill:none;stroke:#000000;stroke-width:0.365001;stroke-dasharray:none;stroke-opacity:1"
       d="m 46.790158,157.04008 c 0,0 -10e-7,1.57463 -5.038819,2.29446"
       id="path114" />
    <path
       style="fill:none;stroke:#000000;stroke-width:0.365001;stroke-dasharray:none;stroke-opacity:1"
       d="m 36.352608,157.8049 c 0,0 1.709597,1.39467 -1.889557,2.9693"
       id="path115" />
    <path
       style="fill:none;stroke:#000000;stroke-width:0.365001;stroke-dasharray:none;stroke-opacity:1"
       d="M 40.266689,161.67399 Z"
       id="path116" />
    <path
       style="fill:none;stroke:#000000;stroke-width:0.365001;stroke-dasharray:none;stroke-opacity:1"
       d="m 41.79633,159.33454 c 0,0 -1.57463,0.045 -1.484651,2.47442 0,0 -0.449895,0.53987 2.249472,2.65438 0,0 0.674842,0.62985 0.404905,2.20448"
       id="path117" />
    <path
       style="fill:none;stroke:#000000;stroke-width:0.365001;stroke-dasharray:none;stroke-opacity:1"
       d="m 34.463051,160.81919 c 0,0 -3.23924,-0.09 -4.858861,3.4192"
       id="path118" />
    <path
       style="fill:none;stroke:#000000;stroke-width:0.365001;stroke-dasharray:none;stroke-opacity:1"
       d="m 35.677767,154.07077 c 0,0 -0.449895,-1.88955 1.349682,-1.12473 1.799576,0.76482 3.554166,0.53987 4.633912,1.48465 1.079746,0.94478 2.294461,1.75459 1.799577,2.38444"
       id="path119" />
    <path
       style="fill:none;stroke:#000000;stroke-width:0.365001;stroke-dasharray:none;stroke-opacity:1"
       d="m 45.350494,156.23027 c 0,0 0.269938,0.67484 -4.004059,1.16972 0,0 -1.664608,-0.53987 -2.699366,2.83434 0,0 -0.539873,2.33945 -0.224947,2.78934 0,0 -0.76482,0 2.384441,2.83434 0,0 1.529641,1.12474 0.179957,3.86909"
       id="path120" />
    <path
       style="fill:none;stroke:#000000;stroke-width:0.365001;stroke-dasharray:none;stroke-opacity:1"
       d="m 35.542797,153.93581 c 0,0 -0.314925,0.31492 2.294462,3.14926 0,0 0.584863,0.62985 -0.359915,4.22901 0,0 -0.449894,1.57463 -3.734124,2.20448 0,0 -2.114503,-0.76482 -2.744356,1.12473 0,0 0.224948,1.84457 -0.269936,2.87933"
       id="path121" />
    <path
       style="fill:none;stroke:#000000;stroke-width:0.392224;stroke-dasharray:none;stroke-opacity:1"
       id="path122"
       d="m 29.009332,158.77023 a 1.5385,1.6285373 0 0 1 -0.332174,-2.11275 1.5385,1.6285373 0 0 1 1.932735,-0.63394 1.5385,1.6285373 0 0 1 0.854619,1.94139 1.5385,1.6285373 0 0 1 -1.70172,1.15872" />
    <path
       style="fill:none;stroke:#000000;stroke-width:0.343908;stroke-dasharray:none;stroke-opacity:1"
       id="path123"
       d="m 48.105203,163.20586 a 1.4727153,1.4726732 0 0 1 -1.226417,1.42729 1.4727153,1.4726732 0 0 1 -1.628236,-0.94349 1.4727153,1.4726732 0 0 1 0.628531,-1.77373 1.4727153,1.4726732 0 0 1 1.859032,0.29217" />
    <path
       style="fill:none;stroke:#000000;stroke-width:0.365001;stroke-dasharray:none;stroke-opacity:1"
       d="m 31.534553,147.60521 c 0,0 3.053985,-2.29049 12.215937,1.78149 9.161954,4.07198 7.380464,5.1536 7.380464,5.1536"
       id="path124" />
    <path
       style="fill:none;stroke:#000000;stroke-width:0.365001;stroke-dasharray:none;stroke-opacity:1"
       d="m 31.534553,147.54159 c -2.417737,0.89074 1.017995,-5.28085 1.017995,-5.28085 0,0 6.680592,-3.24486 13.488432,1.14524 6.80784,4.3901 6.998713,5.78985 6.998713,5.78985 0,0 -0.69987,7.06234 -1.65424,5.4081"
       id="path125" />
    <path
       style="fill:none;stroke:#000000;stroke-width:0.365001;stroke-dasharray:none;stroke-opacity:1"
       d="m 52.403447,152.31344 c 0,0 -5.026351,-4.64461 -10.752571,-5.78985 -5.726221,-1.14524 -0.890744,-1.46337 -10.434447,-1.20887"
       id="path126" />
    <path
       style="fill:none;stroke:#000000;stroke-width:0.365001;stroke-dasharray:none;stroke-opacity:1"
       d="m 54.487855,62.229889 16.972351,1.95373 c 0,0 3.120807,0.13949 2.611809,4.14784 -0.508997,4.00836 -3.393942,26.26476 -3.393942,26.26476 0,0 0.0354,1.63428 -2.00059,1.70243 -2.07031,0.0693 -19.13824,-1.91966 -19.13824,-1.91966 0,0 -1.184391,0.11052 -1.204347,-2.4614 -0.02788,-3.59271 3.3194,-27.35222 3.3194,-27.35222 0,0 0.161327,-2.46273 2.833559,-2.33548 z"
       id="path2" />
    <path
       style="fill:none;stroke:#000000;stroke-width:0.365001;stroke-dasharray:none;stroke-opacity:1"
       d="m 53.753911,67.937479 -2.608612,20.93252 c 0,0 1.63099,0.80767 2.004176,1.46337 0.576233,1.01246 0.254494,2.09959 0.254494,2.09959 l 12.21594,1.33612 c 0,0 0.0072,-0.68408 0.95437,-2.00418 0.780033,-1.08717 1.940554,-0.6999 1.940554,-0.6999 l 2.894921,-21.09158 c 0,0 -1.253689,-0.24601 -1.686054,-0.92256 -0.802891,-1.25634 -0.89075,-2.70402 -0.89075,-2.70402 l -11.834181,-1.27247 c 0,0 0,2.79949 -3.244858,2.86311 z"
       id="path3" />
    <path
       style="fill:none;stroke:#000000;stroke-width:0.365001;stroke-dasharray:none;stroke-opacity:1"
       d="m 55.337701,78.775699 4.633913,10.16762 6.838394,-8.41303 -4.139027,-10.57252 z"
       id="path4" />
    <path
       style="fill:none;stroke:#000000;stroke-width:0.371808;stroke-dasharray:none;stroke-opacity:1"
       id="path5"
       d="m 62.378597,78.22435 a 1.6387109,1.706195 0 0 1 -0.08404,2.279756 1.6387109,1.706195 0 0 1 -2.186155,0.154692 1.6387109,1.706195 0 0 1 -0.379509,-2.246955 1.6387109,1.706195 0 0 1 2.105685,-0.63113" />
    <ellipse
       style="fill:none;stroke:#000000;stroke-width:0.365001;stroke-dasharray:none;stroke-opacity:1"
       id="path6"
       cx="54.460407"
       cy="65.413841"
       rx="0.51737857"
       ry="0.5398733" />
    <ellipse
       style="fill:none;stroke:#000000;stroke-width:0.365001;stroke-dasharray:none;stroke-opacity:1"
       id="path7"
       cx="71.24147"
       cy="67.303398"
       rx="0.65234691"
       ry="0.62985218" />
    <ellipse
       style="fill:none;stroke:#000000;stroke-width:0.365001;stroke-dasharray:none;stroke-opacity:1"
       id="path8"
       cx="68.024727"
       cy="93.712189"
       rx="0.4498944"
       ry="0.40490496" />
    <ellipse
       style="fill:none;stroke:#000000;stroke-width:0.365001;stroke-dasharray:none;stroke-opacity:1"
       id="path9"
       cx="51.243664"
       cy="91.485214"
       rx="0.5398733"
       ry="0.47238913" />
    <path
       style="fill:none;stroke:#000000;stroke-width:0.365001;stroke-dasharray:none;stroke-opacity:1"
       d="m 64.560536,63.209359 1.979536,-5.30876 c 0,0 0.899789,-1.39467 4.993827,-0.09 4.09404,1.3047 13.1819,4.72389 13.1819,4.72389 0,0 1.7096,0.58487 0.67484,3.73413 -1.03475,3.14926 -9.49277,24.56423 -9.49277,24.56423 0,0 -0.62985,1.66461 -2.339444,1.52964 -1.7096,-0.13496 -2.429431,-0.49488 -2.429431,-0.49488"
       id="path10" />
    <path
       style="fill:none;stroke:#000000;stroke-width:0.365001;stroke-dasharray:none;stroke-opacity:1"
       d="m 74.143288,68.113199 1.169721,-0.8098 0.71983,8.90791 -3.239234,2.65437"
       id="path11" />
    <path
       style="fill:none;stroke:#000000;stroke-width:0.365001;stroke-dasharray:none;stroke-opacity:1"
       d="m 85.480629,66.133669 1.84456,0.71983 c 0,0 2.29447,1.12474 1.12474,2.83433 -1.16973,1.7096 -12.73202,22.1798 -12.73202,22.1798 0,0 -0.899777,0.49489 -1.574627,0.35993"
       id="path12" />
    <path
       style="fill:none;stroke:#000000;stroke-width:0.365001;stroke-dasharray:none;stroke-opacity:1"
       d="m 20.77508,98.542829 c 2.099615,-0.76349 0.636247,-1.90874 0.636247,-1.90874 -1.272493,-0.19087 0.254499,-3.69023 0.572622,-4.26285 0.636247,-5.4081 -4.262853,-0.57262 -4.262853,-0.57262 -4.326478,-3.37211 -5.853471,1.71786 -5.853471,1.71786 0,0 -4.9627245,-3.05398 -4.0083545,1.78149 l 3.2448585,3.43574 c 0,0 -2.1632385,1.654241 1.463368,1.908741 0,0 5.789845,-0.699881 8.207583,-2.099621 z"
       id="path92" />
    <path
       style="fill:none;stroke:#000000;stroke-width:0.365001;stroke-dasharray:none;stroke-opacity:1"
       d="m 11.231378,98.479209 c 0,0 5.662597,-0.509 7.253214,-1.08162"
       id="path93" />
    <path
       style="fill:none;stroke:#000000;stroke-width:0.365001;stroke-dasharray:none;stroke-opacity:1"
       d="m 18.102843,94.407229 c 0,0 -0.827119,1.59061 -0.318122,2.86311"
       id="path94" />
    <path
       style="fill:none;stroke:#000000;stroke-width:0.365001;stroke-dasharray:none;stroke-opacity:1"
       d="m 12.440247,95.743339 c 0,0 1.590617,1.59062 1.526992,2.29049"
       id="path95" />
    <path
       style="fill:none;stroke:#000000;stroke-width:0.365001;stroke-dasharray:none;stroke-opacity:1"
       d="m 18.230092,99.751699 c 0,0 1.781492,0.509001 2.226866,2.035991"
       id="path96" />
    <path
       style="fill:none;stroke:#000000;stroke-width:0.365001;stroke-dasharray:none;stroke-opacity:1"
       d="m 14.539861,100.45157 c 0,0 -0.95437,1.20887 -1.272493,3.11761"
       id="path97" />
    <path
       style="fill:none;stroke:#000000;stroke-width:0.365001;stroke-dasharray:none;stroke-opacity:1"
       d="m 21.411325,98.606459 c 0,0 12.343189,8.080331 9.480079,15.842541 0,0 -3.181234,5.6626 -10.243573,6.68059"
       id="path98" />
    <path
       style="fill:none;stroke:#000000;stroke-width:0.365001;stroke-dasharray:none;stroke-opacity:1"
       d="m 11.231378,100.7697 c 0,0 -7.4440865,11.38881 -3.4993565,16.79691 0,0 3.6902315,5.02635 12.9794345,3.62661"
       id="path99" />
    <path
       style="fill:none;stroke:#000000;stroke-width:0.365001;stroke-dasharray:none;stroke-opacity:1"
       id="path100"
       d="m 21.969532,107.73818 a 4.9627247,5.1854115 0 0 1 0.213314,7.00706 4.9627247,5.1854115 0 0 1 -6.662904,0.82513 4.9627247,5.1854115 0 0 1 -1.360213,-6.86503 4.9627247,5.1854115 0 0 1 6.428767,-2.00682" />
    <path
       style="fill:none;stroke:#000000;stroke-width:0.365001;stroke-dasharray:none;stroke-opacity:1"
       id="path101"
       d="m 19.120925,115.21915 a 4.1992288,4.0719795 0 0 1 -4.723747,-2.8503 4.1992288,4.0719795 0 0 1 2.339577,-4.89482 4.1992288,4.0719795 0 0 1 5.296028,1.65299 4.1992288,4.0719795 0 0 1 -1.044122,5.29915" />
    <path
       style="fill:none;stroke:#000000;stroke-width:0.365001;stroke-dasharray:none;stroke-opacity:1"
       d="m 17.189257,111.57001 c 1.136477,-0.7281 0.792477,-2.24936 0.792477,-2.24936 0,0 0.581532,2.04235 1.750751,1.99874 0,0 -1.26957,-0.32977 -0.877097,2.21773 0,0 -0.745435,-2.24736 -1.666161,-1.96746 z"
       id="path46-4" />
    <path
       style="fill:none;stroke:#000000;stroke-width:0.365001;stroke-dasharray:none;stroke-opacity:1"
       id="path78"
       d="m 174.68153,99.515013 a 8.9753933,8.8179312 0 0 1 12.47183,-1.400512 8.9753933,8.8179312 0 0 1 1.69895,12.219339 8.9753933,8.8179312 0 0 1 -12.39725,1.93696 8.9753933,8.8179312 0 0 1 -2.2432,-12.13431" />
    <path
       style="fill:none;stroke:#000000;stroke-width:0.381284;stroke-dasharray:none;stroke-opacity:1"
       id="path79"
       d="m 169.65735,107.11144 a 11.756612,11.689046 0 0 1 9.56395,-13.226599 11.756612,11.689046 0 0 1 13.57411,9.122439 11.756612,11.689046 0 0 1 -8.77871,13.75431 11.756612,11.689046 0 0 1 -14.08194,-8.32678" />
    <path
       style="fill:none;stroke:#000000;stroke-width:0.365001;stroke-dasharray:none;stroke-opacity:1"
       d="m 171.23096,104.22247 c 0,0.22495 -0.53987,7.73819 6.61345,10.6625"
       id="path80" />
    <path
       style="fill:none;stroke:#000000;stroke-width:0.365001;stroke-dasharray:none;stroke-opacity:1"
       d="m 180.56627,115.50357 c -0.12093,-0.0745 3.33539,0.31679 6.12766,-1.09499 1.54914,-0.78325 2.76941,-2.23217 4.19742,-4.15753"
       id="path81" />
    <path
       style="fill:none;stroke:#000000;stroke-width:0.365001;stroke-dasharray:none;stroke-opacity:1"
       id="path82"
       d="m 186.73756,94.91996 a 1.7995776,1.687104 0 0 1 0.66947,-1.849552 1.7995776,1.687104 0 0 1 2.08327,-0.01763 1.7995776,1.687104 0 0 1 0.70498,1.837917 1.7995776,1.687104 0 0 1 -1.61815,1.230216" />
    <path
       style="fill:none;stroke:#000000;stroke-width:0.365001;stroke-dasharray:none;stroke-opacity:1"
       id="path83"
       d="m 187.23985,95.253881 a 0.8997888,0.967273 0 0 1 0.33473,-1.06041 0.8997888,0.967273 0 0 1 1.04163,-0.01011 0.8997888,0.967273 0 0 1 0.35249,1.05374 0.8997888,0.967273 0 0 1 -0.80907,0.705323" />
    <path
       style="fill:none;stroke:#000000;stroke-width:0.365001;stroke-dasharray:none;stroke-opacity:1"
       d="m 184.45786,99.273639 c 0,0 -1.48466,4.363971 -0.94478,5.173781"
       id="path84" />
    <path
       style="fill:none;stroke:#000000;stroke-width:0.365001;stroke-dasharray:none;stroke-opacity:1"
       d="m 186.57236,107.32675 c 0,0 -2.60939,-1.48466 -3.01429,-2.83434"
       id="path85" />
    <path
       style="fill:none;stroke:#000000;stroke-width:0.365001;stroke-dasharray:none;stroke-opacity:1"
       d="m 186.12247,107.46171 c 0,0 -2.92432,-1.57463 -3.59916,-1.07974"
       id="path86" />
    <path
       style="fill:none;stroke:#000000;stroke-width:0.365001;stroke-dasharray:none;stroke-opacity:1"
       d="m 178.83418,110.65596 c 0,0 2.38444,-3.77911 3.59915,-4.18401"
       id="path87" />
    <path
       style="fill:none;stroke:#000000;stroke-width:0.365001;stroke-dasharray:none;stroke-opacity:1"
       d="m 183.87299,100.35338 c 0,0 -1.39467,2.24947 -2.92431,2.42943"
       id="path88" />
    <path
       style="fill:none;stroke:#000000;stroke-width:0.365001;stroke-dasharray:none;stroke-opacity:1"
       d="m 177.12458,102.28793 c 0,0 2.42943,1.03475 3.8241,0.62985"
       id="path89" />
    <path
       style="fill:none;stroke:#000000;stroke-width:0.365001;stroke-dasharray:none;stroke-opacity:1"
       d="m 177.21456,102.69283 c 0,0 3.23924,1.79958 2.87932,3.32922"
       id="path90" />
    <path
       style="fill:none;stroke:#000000;stroke-width:0.365001;stroke-dasharray:none;stroke-opacity:1"
       d="m 178.78919,110.25106 c 0,0 1.2597,-2.87932 1.34968,-4.76888"
       id="path91" />
    <path
       style="fill:none;stroke:#000000;stroke-width:0.365001;stroke-dasharray:none;stroke-opacity:1"
       d="m 151.20064,224.8163 -0.7635,11.32518 c 0,0 -0.44537,1.52701 0.63625,1.71788 1.08162,0.19088 2.67224,1.20887 2.67224,-1.14524 0,-2.35412 0.50899,-10.8162 0.50899,-10.8162"
       id="path13" />
    <path
       style="fill:none;stroke:#000000;stroke-width:0.365001;stroke-dasharray:none;stroke-opacity:1"
       d="m 153.9365,235.12349 15.7153,4.96272"
       id="path14" />
    <path
       style="fill:none;stroke:#000000;stroke-width:0.365001;stroke-dasharray:none;stroke-opacity:1"
       d="m 153.80925,237.7321 15.52442,5.21722"
       id="path15" />
    <path
       style="fill:none;stroke:#000000;stroke-width:0.365001;stroke-dasharray:none;stroke-opacity:1"
       d="m 170.98791,231.11513 -1.39974,11.45245 c 0,0 -0.63968,1.41939 0.7635,1.65425 1.60064,0.2679 1.78149,0.1909 2.03599,-1.59062 0.2545,-1.7815 1.39974,-10.56171 1.39974,-10.56171"
       id="path16" />
    <path
       style="fill:none;stroke:#000000;stroke-width:0.365001;stroke-dasharray:none;stroke-opacity:1"
       d="m 153.61838,221.95318 c 0,0 -1.71786,-1.08161 -2.29049,-0.69986 -0.57262,0.38175 -0.50899,0.69986 -0.57262,1.65424 -0.0636,0.95437 -0.76349,1.59062 2.54499,2.54499 3.30848,0.95437 5.21722,1.59062 5.21722,1.59062"
       id="path17" />
    <path
       style="fill:none;stroke:#000000;stroke-width:0.365001;stroke-dasharray:none;stroke-opacity:1"
       d="m 165.77069,229.20639 c 1.65415,0.70929 5.18082,1.83467 8.27121,2.86311 0,0 0.38172,-0.69987 0.31812,-2.09961 -0.0163,-0.35838 0.005,-0.64171 0.0274,-0.86917 0.0653,-0.6609 0.14099,-0.85023 -0.66369,-1.03957 -0.46778,-0.11006 -1.8876,-0.51764 -3.34849,-0.9448 -1.91701,-0.56054 -3.90473,-1.1548 -3.90473,-1.1548"
       id="path18" />
    <path
       style="fill:none;stroke:#000000;stroke-width:0.365001;stroke-dasharray:none;stroke-opacity:1"
       d="m 158.89922,232.51488 c 0,0 -0.57262,-5.28084 -0.19087,-6.29885 0.38175,-1.01798 0.57262,-4.13559 3.37211,-3.62659 2.79949,0.509 4.1356,0.82711 3.94473,3.05397 -0.19088,2.22688 -1.2725,6.80785 -1.2725,6.80785 0,0 -2.60861,2.73586 -5.1536,1.01799 z"
       id="path19" />
    <path
       style="fill:none;stroke:#000000;stroke-width:0.365001;stroke-dasharray:none;stroke-opacity:1"
       d="m 151.32788,221.25331 c 0.0636,-0.38174 3.18124,-13.23393 10.8162,-10.56169 l 1.71787,0.95437 14.9518,3.94473"
       id="path20" />
    <path
       style="fill:none;stroke:#000000;stroke-width:0.365001;stroke-dasharray:none;stroke-opacity:1"
       d="m 164.11645,211.77324 c -6.93509,-1.27249 -9.48008,10.37082 -9.48008,10.37082 l 5.02635,1.527"
       id="path21" />
    <path
       style="fill:none;stroke:#000000;stroke-width:0.365001;stroke-dasharray:none;stroke-opacity:1"
       d="m 156.22699,217.88121 4.51735,1.52699"
       id="path22" />
    <path
       style="fill:none;stroke:#000000;stroke-width:0.365001;stroke-dasharray:none;stroke-opacity:1"
       d="m 159.40823,213.04573 3.69023,1.20887"
       id="path23" />
    <path
       style="fill:none;stroke:#000000;stroke-width:0.365001;stroke-dasharray:none;stroke-opacity:1"
       d="m 187.84845,224.8163 c 0,0 -3.56298,-20.80527 -13.48843,3.1176"
       id="path24" />
    <path
       style="fill:none;stroke:#000000;stroke-width:0.365001;stroke-dasharray:none;stroke-opacity:1"
       d="m 180.72249,219.6627 c 4.6446,-3.69023 5.72622,5.40809 5.72622,5.40809 l -10.0527,2.73586 0.38175,-2.0996"
       id="path25" />
    <path
       style="fill:none;stroke:#000000;stroke-width:0.365001;stroke-dasharray:none;stroke-opacity:1"
       d="m 187.91208,224.43454 -0.0636,4.07198 -13.36118,2.92674"
       id="path26" />
    <path
       style="fill:none;stroke:#000000;stroke-width:0.365001;stroke-dasharray:none;stroke-opacity:1"
       d="m 175.25077,238.55923 -0.19088,1.65423 7.63497,-2.54498"
       id="path27" />
    <path
       style="fill:none;stroke:#000000;stroke-width:0.365001;stroke-dasharray:none;stroke-opacity:1"
       d="m 183.96735,236.45961 1.33612,-7.25322"
       id="path28" />
    <path
       style="fill:none;stroke:#000000;stroke-width:0.365001;stroke-dasharray:none;stroke-opacity:1"
       d="m 171.75141,244.41269 c 0,0 3.24486,0.38175 3.18123,-2.60861"
       id="path29" />
    <path
       style="fill:none;stroke:#000000;stroke-width:0.365001;stroke-dasharray:none;stroke-opacity:1"
       d="m 175.05989,242.75846 7.50772,-2.48136"
       id="path30" />
    <path
       style="fill:none;stroke:#000000;stroke-width:0.365001;stroke-dasharray:none;stroke-opacity:1"
       d="m 183.0766,238.87734 c 0,0 -0.82712,2.03599 -0.38174,1.97237 0.44537,-0.0636 2.60861,0.89075 3.1176,-3.30848 0.509,-4.19923 1.08162,-8.71658 1.08162,-8.71658"
       id="path31" />
    <path
       style="fill:none;stroke:#000000;stroke-width:0.365001;stroke-dasharray:none;stroke-opacity:1"
       d="m 183.26748,216.29059 c 0,0 -4.19923,-2.92674 -8.46208,2.86311"
       id="path32" />
    <path
       style="fill:none;stroke:#000000;stroke-width:0.365001;stroke-dasharray:none;stroke-opacity:1"
       d="m 173.72378,221.38056 c 0,0 -1.7815,2.79949 -1.90874,5.78985"
       id="path33" />
    <path
       style="fill:none;stroke:#000000;stroke-width:0.365001;stroke-dasharray:none;stroke-opacity:1"
       d="m 172.96028,222.78031 -4.8991,-1.65424"
       id="path34" />
    <path
       style="fill:none;stroke:#000000;stroke-width:0.365001;stroke-dasharray:none;stroke-opacity:1"
       d="m 175.95064,217.69033 -3.56298,-0.95437"
       id="path35" />
    <ellipse
       style="fill:none;stroke:#000000;stroke-width:0.365001;stroke-dasharray:none;stroke-opacity:1"
       id="path36"
       cx="161.98502"
       cy="226.85228"
       rx="0.73168379"
       ry="0.95437014" />
    <path
       style="fill:none;stroke:#000000;stroke-width:0.365001;stroke-dasharray:none;stroke-opacity:1"
       d="m 161.38059,227.80665 c -0.31813,0.509 -1.14525,2.73586 -0.69987,3.11761 0.44537,0.38175 2.54498,1.14524 1.84511,-2.79948"
       id="path37" />
    <path
       style="fill:none;stroke:#000000;stroke-width:0.365001;stroke-dasharray:none;stroke-opacity:1"
       d="m 154.31825,228.31565 1.20887,0.509"
       id="path38" />
    <path
       style="fill:none;stroke:#000000;stroke-width:0.365001;stroke-dasharray:none;stroke-opacity:1"
       d="m 153.9365,231.94227 2.22687,0.57261"
       id="path39" />
    <path
       style="fill:none;stroke:#000000;stroke-width:0.365001;stroke-dasharray:none;stroke-opacity:1"
       d="m 170.28804,235.37799 -2.73586,-0.82712"
       id="path40" />
    <path
       style="fill:none;stroke:#000000;stroke-width:0.365001;stroke-dasharray:none;stroke-opacity:1"
       d="m 176.07788,231.24239 -0.31812,1.78149"
       id="path41" />
    <path
       style="fill:none;stroke:#000000;stroke-width:0.365001;stroke-dasharray:none;stroke-opacity:1"
       id="path42"
       d="m 81.260559,167.77039 a 4.9488387,5.2637649 0 0 1 -5.650761,-0.0408 4.9488387,5.2637649 0 0 1 -1.930968,-5.6487 4.9488387,5.2637649 0 0 1 4.306514,-3.89158 4.9488387,5.2637649 0 0 1 4.928954,2.93956" />
    <path
       style="fill:none;stroke:#000000;stroke-width:0.365001;stroke-dasharray:none;stroke-opacity:1"
       id="path42-5"
       d="m 86.772223,157.55325 a 5.3087544,5.2637649 0 0 1 -1.79734,-6.05213 5.3087544,5.2637649 0 0 1 5.350352,-3.41483 5.3087544,5.2637649 0 0 1 4.811735,4.12821 5.3087544,5.2637649 0 0 1 -2.639415,5.74067" />
    <path
       style="fill:none;stroke:#000000;stroke-width:0.546346;stroke-dasharray:none;stroke-opacity:1"
       id="path42-5-4"
       d="m 92.314672,158.02115 a 7.8724136,7.9529352 0 0 1 4.387255,8.73687 7.8724136,7.9529352 0 0 1 -7.334339,6.40923 7.8724136,7.9529352 0 0 1 -7.926527,-5.64403" />
    <path
       style="fill:none;stroke:#000000;stroke-width:0.365001;stroke-dasharray:none;stroke-opacity:1"
       d="m 82.781714,160.95416 c 0,0 1.709599,-3.50918 3.959071,-3.14926"
       id="path43" />
    <path
       style="fill:none;stroke:#000000;stroke-width:0.365001;stroke-dasharray:none;stroke-opacity:1"
       d="m 134.73984,151.92007 c 3.49935,3.94473 15.14267,0.19088 15.14267,0.19088 l -0.12725,-4.26286 c 0,0 0,-0.0636 -0.2545,-6.36246 -0.2545,-6.29885 1.27249,-5.78985 1.27249,-5.78985 3.94473,-0.509 2.09962,1.14524 2.09962,1.14524 0,0 -3.81748,1.2725 -0.0636,1.90874 3.75385,0.63625 2.86311,-5.08997 1.84511,-5.85346 -1.01799,-0.7635 -3.56298,-4.77186 -10.11632,1.27249 0,0 -2.78052,4.27861 -5.2251,8.35558 -1.80334,3.00753 -4.18174,5.81833 -4.12772,7.16884 z"
       id="path44" />
    <path
       style="fill:none;stroke:#000000;stroke-width:0.365001;stroke-dasharray:none;stroke-opacity:1"
       d="m 150.13701,150.26583 c 0,0 7.82583,2.92674 0.19087,6.17159 0,0 -19.02378,2.60862 -19.91452,-3.24485 0,0 0.31812,-2.60861 4.26285,-3.18124"
       id="path45" />
    <path
       style="fill:none;stroke:#000000;stroke-width:0.365001;stroke-dasharray:none;stroke-opacity:1"
       d="m 145.93778,136.2684 c 1.33612,-0.19087 1.65424,-1.71786 1.65424,-1.71786 0,0 -0.31812,2.09961 0.7635,2.54498 0,0 -1.018,-0.82712 -1.71787,1.65425 0,0 0.2545,-2.35412 -0.69987,-2.48137 z"
       id="path46" />
    <path
       style="fill:none;stroke:#000000;stroke-width:0.365001;stroke-dasharray:none;stroke-opacity:1"
       d="M 146.5104,143.77612 Z"
       id="path47" />
    <path
       style="fill:none;stroke:#000000;stroke-width:0.365001;stroke-dasharray:none;stroke-opacity:1"
       d="m 140.59331,141.86737 c 0,0 2.29048,-1.20886 2.29048,-2.03599 0,-0.82712 -1.39974,3.18124 0.95438,3.62661"
       id="path48" />
    <path
       style="fill:none;stroke:#000000;stroke-width:0.365001;stroke-dasharray:none;stroke-opacity:1"
       d="m 143.83817,143.45799 c -3.37211,-0.0636 -3.62661,3.56298 -3.62661,3.56298 0,0 0.50899,-1.90874 -0.57262,-2.60861"
       id="path49" />
    <path
       style="fill:none;stroke:#000000;stroke-width:0.365001;stroke-dasharray:none;stroke-opacity:1"
       d="m 144.53804,147.97534 c 0,0 1.71786,0.12725 1.84511,-1.65424 0,0 -0.69987,2.09962 1.39974,1.78149 0,0 -2.29048,0.57263 -1.08162,1.527 0,0 -0.89074,-0.82713 -1.71786,0.0636 0,0 0.509,-1.27249 -0.44537,-1.71787 z"
       id="path50" />
    <path
       style="fill:none;stroke:#000000;stroke-width:0.365001;stroke-dasharray:none;stroke-opacity:1"
       d="m 103.5153,202.87596 4.81387,1.16972"
       id="path51" />
    <path
       style="fill:none;stroke:#000000;stroke-width:0.296204;stroke-dasharray:none;stroke-opacity:1"
       id="path52"
       d="m 159.33643,168.25669 a 1.8102818,1.8203372 0 0 1 0.49291,2.08546 1.8102818,1.8203372 0 0 1 -1.82283,1.11134 1.8102818,1.8203372 0 0 1 -1.61097,-1.40381"
       transform="rotate(14.616852)" />
    <path
       style="fill:none;stroke:#000000;stroke-width:0.296204;stroke-dasharray:none;stroke-opacity:1"
       id="path52-1"
       d="m 121.74112,202.57173 a 1.9902395,1.5054111 0 0 1 -0.87385,1.78155 1.9902395,1.5054111 0 0 1 -2.48379,-0.28487 1.9902395,1.5054111 0 0 1 -0.13636,-1.89741" />
    <path
       style="fill:none;stroke:#000000;stroke-width:0.365001;stroke-dasharray:none;stroke-opacity:1"
       d="m 111.65839,203.01093 c 0,0 2.60939,-5.80364 2.65438,-6.3885"
       id="path53" />
    <path
       style="fill:none;stroke:#000000;stroke-width:0.365001;stroke-dasharray:none;stroke-opacity:1"
       d="m 118.27184,202.24611 c 0,0 -3.28423,-4.04905 -3.95907,-5.57869"
       id="path54" />
    <path
       style="fill:none;stroke:#000000;stroke-width:0.365001;stroke-dasharray:none;stroke-opacity:1"
       d="m 121.82601,202.51604 c 0,0 2.15949,-0.53987 4.18401,-1.93454 0,0 -2.92431,7.01835 -2.47441,7.82816"
       id="path55" />
    <path
       style="fill:none;stroke:#000000;stroke-width:0.365001;stroke-dasharray:none;stroke-opacity:1"
       d="m 103.5153,203.01093 c 0,0 4.00406,4.58892 4.6789,6.74842"
       id="path56" />
    <path
       style="fill:none;stroke:#000000;stroke-width:0.365001;stroke-dasharray:none;stroke-opacity:1"
       d="m 115.07759,202.74099 -0.71983,1.88956 1.07974,1.93454 0.71983,-2.29446 z"
       id="path57" />
    <path
       style="fill:none;stroke:#000000;stroke-width:0.389297;stroke-dasharray:none;stroke-opacity:1"
       id="path58"
       d="m -101.01588,-218.22815 a 7.8125334,1.2501857 0 0 1 10.974525,-0.18352 7.8125334,1.2501857 0 0 1 1.175251,1.7557 7.8125334,1.2501857 0 0 1 -10.968439,0.19261 7.8125334,1.2501857 0 0 1 -1.232027,-1.7547"
       transform="matrix(-0.99731245,0.07326581,-0.09793793,-0.99519252,0,0)" />
    <path
       style="fill:none;stroke:#000000;stroke-width:0.365001;stroke-dasharray:none;stroke-opacity:1"
       d="m 37.513347,210.39788 -5.980721,3.62661 c 0,0 -1.399741,0.82713 0.699873,1.90874 2.099614,1.08162 20.296272,12.34319 20.296272,12.34319 0,0 0.445373,1.78149 6.871464,-2.79949 6.426092,-4.58097 14.061054,-9.16194 14.061054,-9.16194 0,0 1.017995,-0.63625 -1.399741,-1.46337"
       id="path59" />
    <path
       style="fill:none;stroke:#000000;stroke-width:0.365001;stroke-dasharray:none;stroke-opacity:1"
       d="m 39.103964,209.06178 c 0,0 1.717865,0.69987 5.72622,-11.32521 0,0 9.161955,4.13562 11.579693,6.74423 0,0 0.82712,1.97236 1.781491,1.27249 0.95437,-0.69987 10.052699,1.84512 10.052699,1.84512 l -10.370823,13.55206 c 0,0 -2.03599,2.67223 -4.644601,4.1356 -2.608612,1.46337 0.82712,1.08162 0.82712,1.08162"
       id="path60" />
    <path
       style="fill:none;stroke:#000000;stroke-width:0.365001;stroke-dasharray:none;stroke-opacity:1"
       d="m 65.317332,214.02449 -6.935092,6.87147"
       id="path61" />
    <path
       style="fill:none;stroke:#000000;stroke-width:0.365001;stroke-dasharray:none;stroke-opacity:1"
       d="m 67.607819,208.6164 2.226863,1.71787 c 0,0 1.145244,0.19087 -1.208868,2.60861 -2.354114,2.41774 -12.343188,11.51606 -12.343188,11.51606"
       id="path62" />
    <path
       style="fill:none;stroke:#000000;stroke-width:0.365001;stroke-dasharray:none;stroke-opacity:1"
       d="m 67.416946,217.58748 3.181234,-2.545 c 0,0 3.881104,-1.71786 -0.954371,-2.54498"
       id="path63" />
    <path
       style="fill:none;stroke:#000000;stroke-width:0.365001;stroke-dasharray:none;stroke-opacity:1"
       d="m 70.725429,218.1601 c 0,0 6.235218,0.7635 0.254497,4.19923 -5.980718,3.43573 -16.47879,11.77056 -16.47879,11.77056"
       id="path64" />
    <path
       style="fill:none;stroke:#000000;stroke-width:0.365001;stroke-dasharray:none;stroke-opacity:1"
       d="m 32.168875,216.44224 c 0,0 -3.244861,1.71786 1.081619,4.58097"
       id="path65" />
    <path
       style="fill:none;stroke:#000000;stroke-width:0.365001;stroke-dasharray:none;stroke-opacity:1"
       d="m 34.332113,219.11446 9.92545,6.10797"
       id="path66" />
    <path
       style="fill:none;stroke:#000000;stroke-width:0.365001;stroke-dasharray:none;stroke-opacity:1"
       d="m 35.222857,222.86832 7.507713,4.45373"
       id="path67" />
    <path
       style="fill:none;stroke:#000000;stroke-width:0.365001;stroke-dasharray:none;stroke-opacity:1"
       d="m 46.229928,229.23079 6.680592,4.45372"
       id="path68" />
    <path
       style="fill:none;stroke:#000000;stroke-width:0.365001;stroke-dasharray:none;stroke-opacity:1"
       d="m 72.252421,222.35933 c 0,0 4.580977,0.57263 -0.890746,4.00836 -5.471721,3.43573 -13.933805,10.11632 -13.933805,10.11632 0,0 -1.336117,1.97236 -6.744216,-1.71788 -5.408096,-3.69023 -17.68766,-11.26155 -17.68766,-11.26155 0,0 -1.908739,-0.69988 -0.254498,-2.16324"
       id="path69" />
    <path
       style="fill:none;stroke:#000000;stroke-width:0.365001;stroke-dasharray:none;stroke-opacity:1"
       d="m 70.216431,224.45894 -9.861825,8.08033"
       id="path70" />
    <path
       style="fill:none;stroke:#000000;stroke-width:0.365001;stroke-dasharray:none;stroke-opacity:1"
       d="m 53.546766,229.80341 c 0,0 0.95437,2.48136 5.471721,-1.52699 l 4.008356,-3.75386"
       id="path71" />
    <path
       style="fill:none;stroke:#000000;stroke-width:0.365001;stroke-dasharray:none;stroke-opacity:1"
       d="m 66.017203,223.18644 3.690231,-2.29048"
       id="path72" />
    <path
       style="fill:none;stroke:#000000;stroke-width:0.365001;stroke-dasharray:none;stroke-opacity:1"
       d="m 62.581469,207.72565 2.799487,1.65424"
       id="path73" />
    <path
       style="fill:none;stroke:#000000;stroke-width:0.365001;stroke-dasharray:none;stroke-opacity:1"
       d="m 53.228641,209.95251 c 0,0 -2.290487,2.35411 2.863112,3.88112"
       id="path74" />
    <path
       style="fill:none;stroke:#000000;stroke-width:0.365001;stroke-dasharray:none;stroke-opacity:1"
       d="m 48.138667,215.61511 c 0,0 3.24486,-3.05399 6.935091,-0.57263"
       id="path75" />
    <path
       style="fill:none;stroke:#000000;stroke-width:0.365001;stroke-dasharray:none;stroke-opacity:1"
       d="m 52.274271,208.6164 c 0,0 -1.272493,2.54499 -6.171594,0.57262"
       id="path76" />
    <path
       style="fill:none;stroke:#000000;stroke-width:0.365001;stroke-dasharray:none;stroke-opacity:1"
       d="m 45.975428,209.95251 c 0,0 3.117609,1.39975 1.463368,5.21722"
       id="path77" />
    <path
       style="fill:none;stroke:#000000;stroke-width:0.264999;stroke-dasharray:none;stroke-opacity:1"
       d="m 39.332269,124.221 c 0,0 0.222687,2.41774 -2.004179,2.29048 0,0 2.322303,-0.50899 1.686056,2.16325 0,0 0.668059,-2.25868 2.640424,-0.95437 0,0 -1.240681,-0.73169 0,-2.51318 0,0 -1.845116,1.018 -2.226864,-0.66806"
       id="path215" />
    <path
       style="fill:none;stroke:#000000;stroke-width:0.264999;stroke-dasharray:none;stroke-opacity:1"
       d="m 41.909067,126.22517 c 0,0 1.113433,0.15907 1.908742,-0.50899"
       id="path216" />
    <path
       style="fill:none;stroke:#000000;stroke-width:0.264999;stroke-dasharray:none;stroke-opacity:1"
       d="m 44.39043,125.36624 c 0,0 0.572622,-0.28631 0.890747,-0.22269"
       id="path217" />
    <path
       style="fill:none;stroke:#000000;stroke-width:0.264999;stroke-dasharray:none;stroke-opacity:1"
       d="m 45.981047,124.85724 c 0,0 1.177057,-0.57262 0.986182,-1.87692 0,0 0.922559,0.509 1.590619,-0.0636 0,0 -0.858934,1.04978 0.540809,1.01797 0,0 -1.113432,0.28631 -1.304306,1.20887 0,0 -0.286313,-0.95438 -1.813304,-0.28632 z"
       id="path218" />
    <path
       style="fill:none;stroke:#000000;stroke-width:0.264999;stroke-dasharray:none;stroke-opacity:1"
       d="m 52.057205,121.96232 c -0.413561,-0.54081 0.572622,-1.14523 0.572622,-1.14523 -0.731684,0.89073 -1.304306,0.0318 -1.304306,0.0318 -0.381748,0.60441 -1.177056,0.54081 -1.177056,0.54081 0.922557,0.95437 -0.540811,1.74968 -0.540811,1.74968 0,0 1.845117,-1.11343 2.131428,-0.41356 0,0 -0.445373,-0.95438 0.318123,-0.7635 z"
       id="path219" />
    <path
       style="fill:none;stroke:#000000;stroke-width:0.264999;stroke-dasharray:none;stroke-opacity:1"
       d="m 52.979763,120.14902 c 0,0 0.604433,-0.54081 0.795309,-1.17706"
       id="path220" />
    <path
       style="fill:none;stroke:#000000;stroke-width:0.264999;stroke-dasharray:none;stroke-opacity:1"
       d="m 53.297885,118.0494 c 0,0 1.208871,0 1.431554,1.68606 0,0 0.127252,-1.90874 1.336121,-1.52699 0,0 -1.240682,-0.0954 -1.177057,-1.49518 0,0 -0.03181,1.49517 -1.590618,1.33611 z"
       id="path221" />
    <path
       style="fill:none;stroke:#000000;stroke-width:0.264999;stroke-dasharray:none;stroke-opacity:1"
       d="m 51.961768,124.9845 c -0.159062,-0.69988 0.47719,-0.95438 0.47719,-0.95438 -0.12725,-0.60446 -0.06363,-0.66806 -0.06363,-0.66806 0,0 -0.349935,1.04981 -0.954371,0.89075 0,0 0.636248,0.0636 0.540811,0.73169 z"
       id="path222" />
    <path
       style="fill:none;stroke:#000000;stroke-width:0.264999;stroke-dasharray:none;stroke-opacity:1"
       id="path223"
       d="m 43.536017,123.52312 a 0.14315553,0.15906169 0 0 1 -0.02669,0.21787 0.14315553,0.15906169 0 0 1 -0.197076,-0.0199 0.14315553,0.15906169 0 0 1 0.0091,-0.21965 0.14315553,0.15906169 0 0 1 0.197889,3.4e-4 l -0.09911,0.11479 z" />
    <path
       style="fill:none;stroke:#000000;stroke-width:0.264999;stroke-dasharray:none;stroke-opacity:1"
       id="path224"
       d="m 44.958471,127.12449 a 0.19087403,0.17496787 0 0 1 -0.03559,0.23965 0.19087403,0.17496787 0 0 1 -0.262767,-0.0219 0.19087403,0.17496787 0 0 1 0.01217,-0.24161 0.19087403,0.17496787 0 0 1 0.263852,3.8e-4 l -0.13214,0.12626 z" />
    <path
       style="fill:none;stroke:#000000;stroke-width:0.264999;stroke-dasharray:none;stroke-opacity:1"
       id="path225"
       d="m 49.466726,125.90351 a 0.23859254,0.22268638 0 0 1 -0.04449,0.30501 0.23859254,0.22268638 0 0 1 -0.328459,-0.0279 0.23859254,0.22268638 0 0 1 0.01521,-0.3075 0.23859254,0.22268638 0 0 1 0.329815,4.7e-4 l -0.165175,0.1607 z" />
    <path
       style="fill:none;stroke:#000000;stroke-width:0.264999;stroke-dasharray:none;stroke-opacity:1"
       id="path226"
       d="m 46.720283,121.51795 a 0.12724936,0.07953084 0 0 1 -0.02373,0.10894 0.12724936,0.07953084 0 0 1 -0.175178,-0.01 0.12724936,0.07953084 0 0 1 0.0081,-0.10982 0.12724936,0.07953084 0 0 1 0.175902,1.7e-4 l -0.08809,0.0574 z" />
    <path
       style="fill:none;stroke:#000000;stroke-width:0.264999;stroke-dasharray:none;stroke-opacity:1"
       id="path227"
       d="m 54.235542,121.87545 a 0.25449872,0.17496787 0 0 1 -0.04745,0.23965 0.25449872,0.17496787 0 0 1 -0.350357,-0.0219 0.25449872,0.17496787 0 0 1 0.01622,-0.24161 0.25449872,0.17496787 0 0 1 0.351803,3.8e-4 l -0.176186,0.12626 z" />
    <path
       style="fill:none;stroke:#000000;stroke-width:0.264999;stroke-dasharray:none;stroke-opacity:1"
       d="m 51.293708,118.65384 c 0,0 0.06363,0.60443 -0.731684,0.44537 0,0 0.763497,0.0636 0.66806,0.63625 0,0 -0.127249,-0.60444 0.699872,-0.509 0,0 -1.113434,0 -0.636248,-0.57262 z"
       id="path228" />
    <path
       style="fill:none;stroke:#000000;stroke-width:0.264999;stroke-dasharray:none;stroke-opacity:1"
       d="m 119.31314,133.5106 c 0.17996,-2.78935 2.38444,-3.0143 2.38444,-3.0143 -3.4192,0.17996 -2.92432,-2.24947 -2.92432,-2.24947 0,0 0.80981,1.66461 -2.33945,3.23924 0,0 2.83434,-0.71983 2.69937,1.61962"
       id="path229" />
    <path
       style="fill:none;stroke:#000000;stroke-width:0.204508;stroke-dasharray:none;stroke-opacity:1"
       d="m 177.87509,143.8256 c 0.14371,-2.08035 1.90408,-2.24813 1.90408,-2.24813 -2.73038,0.13422 -2.33519,-1.67769 -2.33519,-1.67769 0,0 0.64666,1.24149 -1.86815,2.41588 0,0 2.26334,-0.53686 2.15556,1.20795"
       id="path229-8" />
    <path
       style="fill:none;stroke:#000000;stroke-width:0.264999;stroke-dasharray:none;stroke-opacity:1"
       d="m 113.45114,160.55106 c 0.17996,-2.78935 2.38444,-3.0143 2.38444,-3.0143 -3.4192,0.17996 -2.92432,-2.24947 -2.92432,-2.24947 0,0 0.80981,1.66461 -2.33945,3.23924 0,0 2.83434,-0.71983 2.69937,1.61962"
       id="path229-1" />
    <path
       style="fill:none;stroke:#000000;stroke-width:0.264999;stroke-dasharray:none;stroke-opacity:1"
       d="m 84.037513,203.94887 c 0.17996,-2.78935 2.38444,-3.0143 2.38444,-3.0143 -3.4192,0.17996 -2.92432,-2.24947 -2.92432,-2.24947 0,0 0.80981,1.66461 -2.33945,3.23924 0,0 2.83434,-0.71983 2.69937,1.61962"
       id="path229-1-4" />
    <path
       style="fill:none;stroke:#000000;stroke-width:0.264999;stroke-dasharray:none;stroke-opacity:1"
       d="m 133.47853,237.8833 c 0.17996,-2.78935 2.38444,-3.0143 2.38444,-3.0143 -3.4192,0.17996 -2.92432,-2.24947 -2.92432,-2.24947 0,0 0.80981,1.66461 -2.33945,3.23924 0,0 2.83434,-0.71983 2.69937,1.61962"
       id="path229-1-4-6" />
    <path
       style="fill:none;stroke:#000000;stroke-width:0.264999;stroke-dasharray:none;stroke-opacity:1"
       d="m 93.780163,244.54627 c 0.17996,-2.78935 2.38444,-3.0143 2.38444,-3.0143 -3.4192,0.17996 -2.92432,-2.24947 -2.92432,-2.24947 0,0 0.80981,1.66461 -2.33945,3.23924 0,0 2.83434,-0.71983 2.69937,1.61962"
       id="path229-1-4-6-0" />
    <path
       style="fill:none;stroke:#000000;stroke-width:0.264999;stroke-dasharray:none;stroke-opacity:1"
       d="m 143.29251,119.69884 c 0.80981,0.31492 1.12474,1.97953 1.12474,1.97953 -0.31493,-3.28423 2.1145,-3.10427 2.1145,-3.10427 -3.14926,-0.49488 -2.51941,-2.65438 -2.51941,-2.65438 0.13497,3.37421 -2.65438,3.14926 -2.65438,3.14926 0,0 0.80981,1e-5 1.25971,0.13497"
       id="path230" />
    <path
       style="fill:none;stroke:#000000;stroke-width:0.264999;stroke-dasharray:none;stroke-opacity:1"
       d="m 79.13903,140.96701 c 0.80981,0.31492 1.12474,1.97953 1.12474,1.97953 -0.31493,-3.28423 2.1145,-3.10427 2.1145,-3.10427 -3.14926,-0.49488 -2.51941,-2.65438 -2.51941,-2.65438 0.13497,3.37421 -2.65438,3.14926 -2.65438,3.14926 0,0 0.80981,1e-5 1.25971,0.13497"
       id="path230-2" />
    <path
       style="fill:none;stroke:#000000;stroke-width:0.264999;stroke-dasharray:none;stroke-opacity:1"
       d="m 82.700061,106.66386 c 0.80981,0.31492 1.12474,1.97953 1.12474,1.97953 -0.31493,-3.28423 2.1145,-3.10427 2.1145,-3.10427 -3.14926,-0.49488 -2.51941,-2.65438 -2.51941,-2.65438 0.13497,3.37421 -2.65438,3.14926 -2.65438,3.14926 0,0 0.80981,10e-6 1.25971,0.13497"
       id="path230-2-5" />
    <path
       style="fill:none;stroke:#000000;stroke-width:0.264999;stroke-dasharray:none;stroke-opacity:1"
       d="m 106.94845,77.114119 c 0.80981,0.31492 1.12474,1.97953 1.12474,1.97953 -0.31493,-3.28423 2.1145,-3.10427 2.1145,-3.10427 -3.14926,-0.49488 -2.51941,-2.65438 -2.51941,-2.65438 0.13497,3.37421 -2.65438,3.14926 -2.65438,3.14926 0,0 0.80981,1e-5 1.25971,0.13497"
       id="path230-2-5-2" />
    <path
       style="fill:none;stroke:#000000;stroke-width:0.264999;stroke-dasharray:none;stroke-opacity:1"
       d="m 175.31244,72.801297 c 0.80981,0.31492 1.12474,1.97953 1.12474,1.97953 -0.31493,-3.28423 2.1145,-3.10427 2.1145,-3.10427 -3.14926,-0.49488 -2.51941,-2.65438 -2.51941,-2.65438 0.13497,3.37421 -2.65438,3.14926 -2.65438,3.14926 0,0 0.80981,1e-5 1.25971,0.13497"
       id="path230-2-5-2-6" />
    <path
       style="fill:none;stroke:#000000;stroke-width:0.264999;stroke-dasharray:none;stroke-opacity:1"
       d="m 56.127308,185.20201 c 0.80981,0.31492 1.12474,1.97953 1.12474,1.97953 -0.31493,-3.28423 2.1145,-3.10427 2.1145,-3.10427 -3.14926,-0.49488 -2.51941,-2.65438 -2.51941,-2.65438 0.13497,3.37421 -2.65438,3.14926 -2.65438,3.14926 0,0 0.80981,1e-5 1.25971,0.13497"
       id="path230-2-5-2-6-7" />
    <path
       style="fill:none;stroke:#000000;stroke-width:0.204458;stroke-dasharray:none;stroke-opacity:1"
       d="m 182.11071,195.58809 c 0.69844,0.21736 0.97006,1.36628 0.97006,1.36628 -0.27162,-2.26678 1.82369,-2.14257 1.82369,-2.14257 -2.71614,-0.34157 -2.17291,-1.83206 -2.17291,-1.83206 0.1164,2.32888 -2.28933,2.17362 -2.28933,2.17362 0,0 0.69844,1e-5 1.08646,0.0932"
       id="path230-2-5-2-6-7-5" />
    <path
       style="fill:none;stroke:#000000;stroke-width:0.264999;stroke-dasharray:none;stroke-opacity:1"
       d="m 122.50737,108.09156 c 0.85482,-0.80981 0.09,-2.65438 0.09,-2.65438 0,0 0.4049,2.5644 2.5644,2.92432 0,0 -1.12474,-0.17996 -1.16973,2.38444"
       id="path231" />
    <path
       style="fill:none;stroke:#000000;stroke-width:0.264999;stroke-dasharray:none;stroke-opacity:1"
       d="m 122.77732,109.57621 c 0,0 0.8548,0.09 1.07975,1.07975"
       id="path232" />
    <path
       style="fill:none;stroke:#000000;stroke-width:0.264999;stroke-dasharray:none;stroke-opacity:1"
       d="m 120.54815,111.0941 c 0.41541,-0.41415 0.82101,-0.78439 0.82101,-0.78439"
       id="path233" />
    <path
       style="fill:none;stroke:#000000;stroke-width:0.264999;stroke-dasharray:none;stroke-opacity:1"
       d="m 121.21821,106.78421 -1.0208,-0.53455"
       id="path236" />
    <path
       style="fill:none;stroke:#000000;stroke-width:0.264999;stroke-dasharray:none;stroke-opacity:1"
       d="m 122.23745,110.92589 -0.13497,0.4499"
       id="path237" />
    <path
       style="fill:none;stroke:#000000;stroke-width:0.264999;stroke-dasharray:none;stroke-opacity:1"
       d="m 120.80881,109.23626 0.69779,-0.30985"
       id="path238" />
    <path
       style="fill:none;stroke:#000000;stroke-width:0.264999;stroke-dasharray:none;stroke-opacity:1"
       d="m 32.799464,79.611151 c -0.845137,0.81991 -0.05845,2.655258 -0.05845,2.655258 0,0 -0.435343,-2.559404 -2.598967,-2.893638 0,0 1.126799,0.166582 1.141314,-2.398173"
       id="path231-8" />
    <path
       style="fill:none;stroke:#000000;stroke-width:0.264999;stroke-dasharray:none;stroke-opacity:1"
       d="m 32.511892,78.129813 c 0,0 -0.855809,-0.07984 -1.092504,-1.066845"
       id="path232-9" />
    <path
       style="fill:none;stroke:#000000;stroke-width:0.264999;stroke-dasharray:none;stroke-opacity:1"
       d="m 34.722868,76.58554 c -0.410459,0.419057 -0.811631,0.794091 -0.811631,0.794091"
       id="path233-3" />
    <path
       style="fill:none;stroke:#000000;stroke-width:0.264999;stroke-dasharray:none;stroke-opacity:1"
       d="m 34.104068,80.90309 1.02708,0.522379"
       id="path236-4" />
    <path
       style="fill:none;stroke:#000000;stroke-width:0.264999;stroke-dasharray:none;stroke-opacity:1"
       d="M 33.035686,76.773812 33.165301,76.32234"
       id="path237-4" />
    <path
       style="fill:none;stroke:#000000;stroke-width:0.264999;stroke-dasharray:none;stroke-opacity:1"
       d="m 34.484302,78.446348 -0.694058,0.31812"
       id="path238-6" />
    <path
       style="fill:none;stroke:#000000;stroke-width:0.264999;stroke-dasharray:none;stroke-opacity:1"
       d="m 20.533536,197.9113 c -0.845137,0.81991 -0.05845,2.65526 -0.05845,2.65526 0,0 -0.435343,-2.55941 -2.598967,-2.89364 0,0 1.126799,0.16658 1.141314,-2.39818"
       id="path231-8-8" />
    <path
       style="fill:none;stroke:#000000;stroke-width:0.264999;stroke-dasharray:none;stroke-opacity:1"
       d="m 20.245964,196.42996 c 0,0 -0.855809,-0.0798 -1.092504,-1.06685"
       id="path232-9-4" />
    <path
       style="fill:none;stroke:#000000;stroke-width:0.264999;stroke-dasharray:none;stroke-opacity:1"
       d="m 22.45694,194.88569 c -0.410459,0.41905 -0.811631,0.79409 -0.811631,0.79409"
       id="path233-3-9" />
    <path
       style="fill:none;stroke:#000000;stroke-width:0.264999;stroke-dasharray:none;stroke-opacity:1"
       d="m 21.83814,199.20324 1.02708,0.52238"
       id="path236-4-6" />
    <path
       style="fill:none;stroke:#000000;stroke-width:0.264999;stroke-dasharray:none;stroke-opacity:1"
       d="m 20.769758,195.07396 0.129615,-0.45147"
       id="path237-4-3" />
    <path
       style="fill:none;stroke:#000000;stroke-width:0.264999;stroke-dasharray:none;stroke-opacity:1"
       d="m 22.218374,196.74649 -0.694058,0.31812"
       id="path238-6-7" />
    <path
       style="fill:none;stroke:#000000;stroke-width:0.264999;stroke-dasharray:none;stroke-opacity:1"
       d="m 123.9849,171.55776 c 0,0 1.71787,3.18123 -2.38593,4.23104 0,0 4.32648,-0.79531 4.23105,2.99036 0,0 -0.15906,-4.1356 2.67223,-1.74968 0,0 -2.83129,-1.3043 0,-3.78567 0,0 -2.54499,2.13143 -4.51735,-1.68605 z"
       id="path204" />
    <path
       style="fill:none;stroke:#000000;stroke-width:0.264999;stroke-dasharray:none;stroke-opacity:1"
       d="m 129.48844,171.68501 c 0,0 0.2991,-0.22363 0.3955,-0.64759 0.0579,-0.25446 0.18517,-0.58108 -0.26825,-0.97484 0,0 1.08162,0.41356 1.8133,-1.04981"
       id="path205" />
    <path
       style="fill:none;stroke:#000000;stroke-width:0.264999;stroke-dasharray:none;stroke-opacity:1"
       d="m 131.26993,169.10821 c 0,0 -0.66806,1.08162 0.0636,1.8133 0,0 -0.92254,-0.73168 -1.65422,0.92256"
       id="path206" />
    <path
       style="fill:none;stroke:#000000;stroke-width:0.264999;stroke-dasharray:none;stroke-opacity:1"
       d="m 115.10926,178.55647 c 0,0 1.14524,-0.66806 1.24068,-1.8133 0,0 0.60444,1.08162 2.86311,-0.12725 0,0 -2.19505,0.66806 -1.84511,1.94055 0,0 -0.38175,-1.14525 -2.25868,0 z"
       id="path207" />
    <path
       style="fill:none;stroke:#000000;stroke-width:0.264999;stroke-dasharray:none;stroke-opacity:1"
       d="m 113.96398,179.41541 c -0.57259,0.60443 -0.0954,0.85893 -0.0954,0.85893 0.0954,-1.08162 -1.74968,0.89074 -1.74968,0.89074 1.87693,-1.46336 0.69987,-1.59061 0.69987,-1.59061 0,0 0.60436,0.7635 1.14521,-0.15906 z"
       id="path208" />
    <path
       style="fill:none;stroke:#000000;stroke-width:0.264999;stroke-dasharray:none;stroke-opacity:1"
       d="m 130.06106,177.69754 c 0,0 0.47718,-0.22269 0.85893,0.28631"
       id="path209" />
    <path
       style="fill:none;stroke:#000000;stroke-width:0.264999;stroke-dasharray:none;stroke-opacity:1"
       d="m 132.89236,173.212 c 0,0 1.0498,-0.38175 1.36793,-0.12725"
       id="path210" />
    <path
       style="fill:none;stroke:#000000;stroke-width:0.264999;stroke-dasharray:none;stroke-opacity:1"
       d="m 118.79949,173.75281 c 0,0 0,-0.57262 -0.60444,-0.73168"
       id="path211" />
    <path
       style="fill:none;stroke:#000000;stroke-width:0.264999;stroke-dasharray:none;stroke-opacity:1"
       d="m 122.45791,178.1111 c 0,0 -0.7635,-0.0954 -0.69987,0.66806"
       id="path212" />
    <path
       style="fill:none;stroke:#000000;stroke-width:0.184898;stroke-dasharray:none;stroke-opacity:1"
       id="path213"
       d="m 121.22636,180.86388 a 0.16853337,0.21486592 0 0 1 -0.0314,0.2943 0.16853337,0.21486592 0 0 1 -0.23201,-0.0269 0.16853337,0.21486592 0 0 1 0.0107,-0.2967 0.16853337,0.21486592 0 0 1 0.23297,4.6e-4 l -0.11667,0.15505 z" />
    <path
       style="fill:none;stroke:#000000;stroke-width:0.264999;stroke-dasharray:none;stroke-opacity:1"
       id="path214"
       d="m 120.68235,175.80896 a 0.63624674,0.58852828 0 0 1 -0.1044,0.79531 0.63624674,0.58852828 0 0 1 -0.86513,-0.0379 0.63624674,0.58852828 0 0 1 -0.0227,-0.80087 0.63624674,0.58852828 0 0 1 0.8618,-0.0798" />
  </g>
</svg>
